<svg version="1.1" id="Layer_1" xmlns="http://www.w3.org/2000/svg" xmlns:xlink="http://www.w3.org/1999/xlink" x="0px" y="0px"
	 width="100%" viewBox="0 0 4862 4862" enable-background="new 0 0 4862 4862" xml:space="preserve">
<path fill="#FFFFFF" opacity="1.000000" stroke="none" 
	d="
M4444.000000,4868.000000 
	C2962.666748,4868.000000 1483.333374,4868.000000 4.000000,4868.000000 
	C4.000000,3246.666748 4.000000,1625.333374 4.000000,4.000001 
	C1625.333374,4.000000 3246.666748,4.000000 4868.000000,4.000000 
	C4868.000000,1625.333374 4868.000000,3246.666748 4868.000000,4868.000000 
	C4727.333496,4868.000000 4586.666504,4868.000000 4444.000000,4868.000000 
M853.636780,2686.935791 
	C857.002930,2689.083008 860.292297,2691.363281 863.746338,2693.358154 
	C983.666870,2762.634277 1103.600220,2831.887695 1223.540527,2901.129395 
	C1239.108154,2910.116455 1254.843506,2918.821289 1270.260620,2928.058350 
	C1277.361328,2932.312256 1283.901123,2932.534424 1290.874023,2928.276123 
	C1295.416504,2925.502197 1300.140747,2923.027832 1304.751221,2920.363525 
	C1325.506470,2908.367920 1346.236206,2896.328125 1367.000488,2884.348145 
	C1474.844482,2822.127441 1582.743652,2760.001709 1690.509888,2697.646729 
	C1715.001221,2683.475586 1712.259399,2686.323486 1712.266968,2660.417236 
	C1712.310791,2511.164795 1712.333008,2361.912598 1712.251831,2212.660156 
	C1712.234985,2181.635498 1715.574463,2187.056641 1687.942261,2171.055420 
	C1574.432617,2105.323486 1460.789917,2039.821655 1347.196899,1974.233887 
	C1331.050659,1964.911133 1314.589966,1956.083008 1298.867310,1946.093506 
	C1286.838379,1938.450684 1275.779663,1936.842041 1263.819336,1945.676392 
	C1259.031616,1949.212891 1253.481689,1951.714355 1248.293579,1954.712402 
	C1208.515381,1977.697266 1168.754150,2000.711426 1128.962524,2023.672729 
	C1040.725708,2074.588379 952.531372,2125.577881 864.155640,2176.251221 
	C853.210754,2182.527100 846.619446,2190.143066 848.211914,2203.352783 
	C848.686951,2207.293213 848.283630,2211.339600 848.283630,2215.337402 
	C848.283508,2325.944092 848.283447,2436.550781 848.283691,2547.157471 
	C848.283752,2585.803223 848.240845,2624.448730 848.324158,2663.094482 
	C848.339783,2670.333496 847.088745,2677.855713 853.636780,2686.935791 
M3036.599365,2270.631104 
	C3023.267090,2285.667969 3012.314453,2302.237549 3003.715576,2320.438232 
	C2987.183350,2355.430664 2980.215332,2392.270020 2980.829346,2430.857910 
	C2981.476807,2471.516846 2990.080322,2510.137939 3009.630615,2545.888428 
	C3035.505859,2593.205566 3074.109863,2624.705322 3126.765381,2638.384277 
	C3147.661133,2643.812744 3168.923340,2645.362305 3190.178955,2643.290527 
	C3214.702148,2640.900146 3236.088135,2630.480713 3254.359863,2613.747070 
	C3258.033203,2610.383057 3260.444336,2604.682373 3267.064941,2605.455078 
	C3271.063477,2614.510986 3268.883057,2625.246094 3274.302490,2633.550781 
	C3298.428955,2636.381348 3336.696289,2635.741699 3349.905029,2632.376709 
	C3350.399902,2631.179443 3351.324951,2629.983643 3351.328125,2628.784912 
	C3351.516113,2561.512695 3351.640625,2494.240234 3351.719238,2426.967773 
	C3351.725586,2421.660400 3351.377686,2416.351318 3351.138428,2411.045898 
	C3351.109619,2410.407227 3350.833008,2409.719971 3350.486084,2409.173096 
	C3350.155273,2408.651611 3349.581299,2408.284668 3348.630859,2407.398926 
	C3347.289062,2407.059570 3345.396729,2406.165527 3343.502930,2406.161865 
	C3286.881348,2406.055664 3230.259766,2405.991455 3173.638428,2406.106934 
	C3169.853271,2406.114502 3166.071289,2407.586182 3162.581543,2408.315430 
	C3159.805176,2429.750000 3160.300781,2476.269287 3163.519775,2491.176270 
	C3192.718506,2494.504639 3222.553955,2489.964844 3252.568604,2493.672363 
	C3252.568604,2497.345947 3253.132080,2500.064209 3252.481445,2502.451416 
	C3245.912598,2526.550049 3231.119873,2543.604736 3207.678467,2552.387695 
	C3189.646729,2559.143555 3171.009033,2558.816895 3152.711426,2553.544678 
	C3119.926514,2544.097656 3100.133789,2520.797607 3088.395020,2490.098389 
	C3075.197021,2455.582520 3073.319580,2420.178467 3082.136230,2384.184082 
	C3088.301025,2359.014648 3099.842041,2337.142090 3118.618164,2318.922363 
	C3145.940918,2292.408936 3196.500244,2282.554932 3234.674072,2316.637451 
	C3240.106445,2321.487549 3244.694336,2327.285156 3249.662109,2332.654541 
	C3251.845947,2335.014648 3254.001953,2337.400879 3256.783936,2340.446533 
	C3282.654297,2325.580811 3307.059082,2309.834717 3332.056641,2293.947754 
	C3325.584229,2278.375977 3315.343262,2266.963867 3304.280273,2256.563232 
	C3261.657959,2216.491943 3210.391113,2202.262939 3153.246582,2209.456055 
	C3108.159668,2215.131592 3069.497314,2234.742432 3036.599365,2270.631104 
M2131.853271,2565.796875 
	C2145.246826,2550.749023 2156.015137,2533.964844 2163.835693,2515.446533 
	C2187.437012,2459.559326 2188.159180,2402.911621 2168.104492,2345.965820 
	C2157.286621,2315.248291 2139.423828,2289.114014 2114.718262,2267.676514 
	C2075.144775,2233.338379 2027.984619,2219.071533 1976.870850,2217.180176 
	C1938.958618,2215.777344 1900.952515,2216.833740 1862.988892,2216.999023 
	C1858.619751,2217.017822 1854.256348,2218.353027 1848.901245,2219.241943 
	C1848.901245,2225.643555 1848.901123,2230.917725 1848.901123,2236.191650 
	C1848.901001,2261.501221 1848.901123,2286.810547 1848.901123,2312.120117 
	C1848.901001,2412.025879 1848.870361,2511.931641 1848.965942,2611.837402 
	C1848.972656,2618.958984 1847.699097,2626.353027 1851.134399,2634.150391 
	C1857.309937,2634.480713 1863.156006,2635.045166 1869.003906,2635.063721 
	C1898.309326,2635.156494 1927.615967,2634.977539 1956.920532,2635.157471 
	C1972.925659,2635.255615 1988.797241,2634.566895 2004.669434,2632.103760 
	C2053.578125,2624.514160 2096.296631,2605.134766 2131.853271,2565.796875 
M3403.677979,2254.187500 
	C3403.884521,2379.365234 3404.090332,2504.542969 3404.322266,2629.720703 
	C3404.323486,2630.356934 3404.579590,2631.064453 3404.923096,2631.608398 
	C3405.254639,2632.133301 3405.854492,2632.489014 3406.505371,2633.069824 
	C3424.343750,2636.144531 3482.211426,2635.874268 3498.274414,2632.299072 
	C3498.537598,2626.178467 3499.038818,2619.682861 3499.057861,2613.185791 
	C3499.145508,2583.218262 3499.018555,2553.249512 3499.177979,2523.282715 
	C3499.205322,2518.185059 3497.647461,2512.498047 3503.927002,2507.103516 
	C3513.074951,2507.103516 3523.694580,2507.554932 3534.259277,2506.987061 
	C3546.845459,2506.310303 3559.638916,2505.961670 3571.899658,2503.373047 
	C3619.177490,2493.390137 3653.795654,2466.850098 3674.539307,2422.707764 
	C3684.984619,2400.479492 3688.816162,2377.194580 3687.782471,2352.822266 
	C3685.382812,2296.239502 3658.896484,2255.668945 3607.266357,2232.176025 
	C3583.957764,2221.570068 3559.038818,2217.184082 3533.521729,2216.978760 
	C3496.896484,2216.683838 3460.267578,2216.859863 3423.640137,2216.944824 
	C3417.792725,2216.958496 3411.946777,2217.546631 3406.858154,2217.827393 
	C3405.543701,2220.129395 3404.400146,2221.219238 3404.358398,2222.349609 
	C3404.015869,2231.647461 3403.877686,2240.952637 3403.677979,2254.187500 
M2489.123047,2519.094727 
	C2496.895264,2518.520752 2504.997803,2520.570312 2512.682617,2516.817627 
	C2513.667725,2513.889404 2514.836426,2511.478271 2515.275879,2508.940674 
	C2518.832764,2488.403076 2518.919434,2467.769775 2515.252930,2447.300537 
	C2505.259277,2391.506592 2469.145020,2350.820557 2413.538574,2335.944580 
	C2395.122314,2331.017578 2376.532959,2331.094482 2357.964600,2331.917236 
	C2315.097656,2333.816406 2279.431885,2351.328857 2252.349609,2384.727783 
	C2223.965088,2419.732910 2214.449951,2460.756592 2218.768799,2504.756104 
	C2223.524658,2553.206543 2245.779297,2592.238770 2287.302490,2618.768311 
	C2314.898682,2636.399658 2345.390869,2644.192871 2378.385498,2643.990479 
	C2416.701904,2643.755371 2450.068115,2631.179932 2479.620361,2607.500732 
	C2484.146240,2603.874512 2487.897949,2599.282471 2492.665039,2594.474121 
	C2482.259766,2584.056152 2473.331787,2574.125732 2463.348145,2565.403320 
	C2453.536621,2556.831299 2446.307861,2545.085449 2434.046875,2539.670410 
	C2431.568359,2541.102783 2429.826416,2542.059570 2428.136230,2543.100586 
	C2426.434326,2544.148438 2424.838379,2545.375977 2423.102295,2546.359375 
	C2400.215820,2559.321289 2376.229004,2559.980957 2351.635254,2552.430176 
	C2339.043701,2548.564453 2329.180908,2540.827148 2322.364990,2529.581787 
	C2320.880371,2527.132080 2320.997070,2523.711426 2320.032959,2519.093750 
	C2376.140137,2519.093750 2430.735840,2519.093750 2489.123047,2519.094727 
M2705.305176,2286.188232 
	C2719.048584,2280.476562 2731.054199,2288.998535 2743.601562,2291.311279 
	C2753.145508,2276.479004 2769.481934,2233.878906 2771.390137,2218.540771 
	C2768.429443,2216.605225 2765.296631,2214.166260 2761.834961,2212.356201 
	C2735.506592,2198.589844 2707.588623,2195.312500 2678.429932,2199.619385 
	C2642.336914,2204.949951 2615.213379,2223.362793 2597.914795,2255.376465 
	C2588.300293,2273.170166 2583.431885,2292.481689 2583.599609,2312.951660 
	C2583.668945,2321.423584 2584.800293,2330.086426 2582.164551,2338.665527 
	C2570.110596,2342.224121 2557.794922,2338.020264 2546.908447,2341.647461 
	C2543.390381,2365.442139 2544.116455,2413.004150 2548.371094,2426.843018 
	C2555.851318,2426.937988 2563.768066,2426.820312 2571.656494,2427.234375 
	C2575.356689,2427.428467 2579.002930,2428.646240 2583.676514,2429.606201 
	C2583.676514,2437.943115 2583.676758,2445.194336 2583.676758,2452.445312 
	C2583.677002,2507.073975 2583.611328,2561.703125 2583.774414,2616.331299 
	C2583.791504,2622.052979 2581.841064,2628.349854 2586.363770,2633.317383 
	C2609.275391,2636.536865 2664.479492,2635.831787 2678.481934,2631.873535 
	C2678.679199,2625.714600 2679.064941,2619.163574 2679.070801,2612.612305 
	C2679.119873,2558.649902 2679.063477,2504.687256 2679.140869,2450.724854 
	C2679.151123,2443.563232 2678.291504,2436.240479 2680.916992,2428.173584 
	C2686.510742,2427.799805 2691.681396,2427.183838 2696.855225,2427.155762 
	C2718.173340,2427.040283 2739.492188,2427.163574 2760.810303,2427.046387 
	C2764.599365,2427.025635 2768.384033,2426.281250 2771.811035,2425.910156 
	C2775.110840,2406.353760 2774.805420,2356.022217 2771.183350,2340.217285 
	C2756.303467,2340.217285 2741.055664,2340.568115 2725.831055,2340.118652 
	C2710.702393,2339.671631 2695.388428,2342.201904 2679.759521,2338.250244 
	C2678.158447,2316.720215 2680.251465,2297.643555 2705.305176,2286.188232 
M3898.000000,2216.878906 
	C3842.079346,2217.092773 3786.158691,2217.304932 3730.238037,2217.544189 
	C3729.606934,2217.546875 3728.912354,2217.798096 3728.365479,2218.128418 
	C3727.812012,2218.462646 3727.405029,2219.039795 3726.934326,2219.510742 
	C3723.676758,2238.089600 3724.112061,2288.614746 3727.834717,2302.856201 
	C3757.804443,2305.753174 3788.318359,2301.668945 3819.811279,2305.223389 
	C3819.957764,2319.457520 3820.149414,2332.640137 3820.213623,2345.823242 
	C3820.281738,2359.808350 3820.229004,2373.793945 3820.229004,2387.779297 
	C3820.229004,2401.098633 3820.229004,2414.418213 3820.229004,2427.737549 
	C3820.229004,2441.722900 3820.229004,2455.708252 3820.229004,2469.693604 
	C3820.229004,2483.012939 3820.229004,2496.332275 3820.229004,2509.651611 
	C3820.229004,2523.636963 3820.229004,2537.622314 3820.229004,2551.607666 
	C3820.229004,2564.927002 3820.090088,2578.248291 3820.267822,2591.565186 
	C3820.451660,2605.354736 3819.381104,2619.229980 3821.055420,2632.552734 
	C3838.658936,2635.973877 3896.932617,2636.002197 3914.571045,2632.666016 
	C3914.952637,2627.870117 3915.692383,2622.739258 3915.713867,2617.605469 
	C3915.830322,2589.635254 3915.770752,2561.664307 3915.770996,2533.693604 
	C3915.771240,2463.766846 3915.714844,2393.840332 3915.865723,2323.913818 
	C3915.879395,2317.543213 3913.809570,2310.603027 3919.676758,2303.799316 
	C3925.537842,2303.799316 3932.132812,2303.800537 3938.728027,2303.799072 
	C3958.707031,2303.794678 3978.686768,2303.882080 3998.664307,2303.702393 
	C4002.389893,2303.668945 4006.105957,2302.564941 4010.816162,2301.792725 
	C4010.922119,2286.816650 4011.503418,2272.900879 4010.981445,2259.026367 
	C4010.467773,2245.377686 4013.751953,2231.359863 4008.106689,2216.879883 
	C3972.476807,2216.879883 3937.238525,2216.879883 3898.000000,2216.878906 
M2926.001221,2402.020020 
	C2925.993896,2385.355225 2926.121826,2368.688721 2925.874023,2352.027344 
	C2925.819336,2348.350830 2924.434326,2344.694092 2923.735107,2341.376465 
	C2889.787598,2338.643799 2844.753418,2339.531494 2830.745361,2343.311523 
	C2830.505859,2348.262695 2830.057373,2353.504395 2830.033447,2358.748291 
	C2829.945557,2378.078857 2829.998291,2397.410400 2829.998047,2416.741455 
	C2829.998047,2482.067139 2829.929443,2547.393311 2830.096924,2612.718506 
	C2830.114990,2619.785156 2827.970215,2627.448730 2833.340820,2633.663818 
	C2852.564209,2635.842529 2908.075684,2635.567627 2922.978516,2633.247070 
	C2923.675537,2632.131348 2924.977051,2631.018799 2924.983154,2629.899170 
	C2925.387939,2555.270264 2925.688477,2480.641113 2926.001221,2402.020020 
M2846.666992,2187.709961 
	C2839.562012,2191.754883 2834.191650,2197.518311 2829.804199,2204.354004 
	C2816.153076,2225.622070 2816.566406,2247.151123 2829.519775,2268.269775 
	C2841.238281,2287.375000 2865.971191,2297.189697 2888.550537,2292.775146 
	C2911.901611,2288.209961 2929.285156,2271.188721 2934.209473,2248.067871 
	C2940.163086,2220.114502 2923.014160,2189.359131 2895.773438,2181.795654 
	C2880.236084,2177.481445 2864.136719,2177.609131 2846.666992,2187.709961 
z"/>
<path fill="#F2B930" opacity="1.000000" stroke="none" 
	d="
M852.668579,2685.668457 
	C847.088745,2677.855713 848.339783,2670.333496 848.324158,2663.094482 
	C848.240845,2624.448730 848.283752,2585.803223 848.283691,2547.157471 
	C848.283447,2436.550781 848.283508,2325.944092 848.283630,2215.337402 
	C848.283630,2211.339600 848.686951,2207.293213 848.211914,2203.352783 
	C846.619446,2190.143066 853.210754,2182.527100 864.155640,2176.251221 
	C952.531372,2125.577881 1040.725708,2074.588379 1128.962524,2023.672729 
	C1168.754150,2000.711426 1208.515381,1977.697266 1248.293579,1954.712402 
	C1253.481689,1951.714355 1259.031616,1949.212891 1263.819336,1945.676392 
	C1275.779663,1936.842041 1286.838379,1938.450684 1298.867310,1946.093506 
	C1314.589966,1956.083008 1331.050659,1964.911133 1347.196899,1974.233887 
	C1460.789917,2039.821655 1574.432617,2105.323486 1687.942261,2171.055420 
	C1715.574463,2187.056641 1712.234985,2181.635498 1712.251831,2212.660156 
	C1712.333008,2361.912598 1712.310791,2511.164795 1712.266968,2660.417236 
	C1712.259399,2686.323486 1715.001221,2683.475586 1690.509888,2697.646729 
	C1582.743652,2760.001709 1474.844482,2822.127441 1367.000488,2884.348145 
	C1346.236206,2896.328125 1325.506470,2908.367920 1304.751221,2920.363525 
	C1300.140747,2923.027832 1295.416504,2925.502197 1290.874023,2928.276123 
	C1283.901123,2932.534424 1277.361328,2932.312256 1270.260620,2928.058350 
	C1254.843506,2918.821289 1239.108154,2910.116455 1223.540527,2901.129395 
	C1103.600220,2831.887695 983.666870,2762.634277 863.746338,2693.358154 
	C860.292297,2691.363281 857.002930,2689.083008 852.668579,2685.668457 
M1607.281738,2401.757568 
	C1578.261475,2350.224609 1549.493652,2298.546875 1520.120728,2247.215576 
	C1503.950928,2218.958008 1486.811401,2191.253418 1470.017334,2163.354736 
	C1459.630249,2146.099365 1444.072266,2137.232910 1424.151978,2135.781006 
	C1410.229004,2134.766357 1396.300903,2133.105469 1382.369263,2133.043701 
	C1315.221558,2132.746338 1248.070312,2132.640869 1180.923828,2133.051758 
	C1163.117554,2133.160645 1145.323975,2135.340576 1127.327393,2136.583008 
	C1130.770264,2150.933838 1148.000122,2182.487061 1170.823608,2218.306152 
	C1184.734619,2242.473877 1198.645630,2266.641602 1212.686646,2291.035400 
	C1220.201904,2291.035400 1226.791382,2291.013916 1233.380737,2291.038818 
	C1271.307861,2291.181396 1309.234985,2291.363037 1347.162231,2291.473877 
	C1367.227539,2291.532471 1387.002686,2294.083008 1406.382202,2299.082031 
	C1425.650269,2304.052246 1444.736694,2309.727295 1466.365845,2316.629883 
	C1516.533325,2337.191162 1561.310913,2365.942871 1599.764282,2404.331055 
	C1601.137085,2405.701660 1602.933105,2406.647705 1605.250977,2409.871338 
	C1607.740601,2412.126465 1610.230225,2414.381836 1614.878662,2418.592529 
	C1613.275635,2413.919189 1612.936768,2412.104004 1612.067017,2410.594727 
	C1610.841919,2408.468994 1609.223267,2406.570312 1607.281738,2401.757568 
M1613.510498,2449.012207 
	C1590.257324,2448.740479 1567.004761,2448.323486 1543.750854,2448.231689 
	C1509.854492,2448.097412 1475.957275,2448.197266 1441.570190,2448.197266 
	C1438.252197,2453.851074 1435.249268,2458.949707 1432.263916,2464.058105 
	C1412.476440,2497.918213 1392.866089,2531.883789 1372.844482,2565.604980 
	C1360.222046,2586.864258 1344.617432,2605.906250 1327.022949,2623.238770 
	C1315.690796,2634.402344 1303.880127,2645.080078 1289.671143,2656.825684 
	C1246.015381,2690.880615 1197.393311,2714.812988 1143.769287,2728.655762 
	C1139.894897,2729.656006 1136.358398,2731.964844 1129.741455,2735.010986 
	C1147.270264,2736.500488 1161.183228,2738.398438 1175.135376,2738.750488 
	C1256.395508,2740.799805 1337.649414,2742.568359 1418.855591,2736.389160 
	C1442.591919,2734.582764 1460.862671,2724.584229 1473.779907,2704.901855 
	C1481.447876,2693.218262 1488.873291,2681.333496 1495.677734,2669.132324 
	C1532.979370,2602.245605 1570.081665,2535.248047 1607.155884,2468.235352 
	C1610.015015,2463.067627 1612.129761,2457.488037 1613.510498,2449.012207 
M1086.763916,2340.606201 
	C1082.273926,2310.250977 1080.765259,2279.854492 1082.798340,2249.127930 
	C1084.841431,2218.248047 1091.794189,2188.322021 1099.749390,2155.681396 
	C1091.236206,2162.108154 1087.544922,2168.513428 1083.750854,2174.599609 
	C1062.999268,2207.888428 1041.545654,2240.790771 1022.145935,2274.858398 
	C998.140930,2317.013672 976.012878,2360.234863 952.871826,2402.885986 
	C940.732178,2425.260010 941.439636,2447.535400 952.802490,2469.709717 
	C959.467712,2482.716797 966.662598,2495.465088 973.963745,2508.131348 
	C1002.518433,2557.668457 1031.203247,2607.130371 1059.856323,2656.610840 
	C1068.185303,2670.993896 1076.324707,2685.495605 1085.031128,2699.647461 
	C1089.463379,2706.852051 1093.910156,2714.379639 1102.770508,2719.065430 
	C1114.641357,2698.603027 1126.421143,2678.576172 1137.900757,2658.378662 
	C1142.799438,2649.759766 1147.071167,2640.784668 1153.799927,2630.309082 
	C1159.848267,2619.965088 1166.161987,2609.764648 1171.871948,2599.237061 
	C1177.828613,2588.254639 1185.988892,2578.334717 1189.130371,2565.925293 
	C1174.827148,2541.333984 1160.599854,2517.275146 1146.772949,2492.988281 
	C1132.944580,2468.698730 1118.684937,2444.640625 1108.217773,2418.565186 
	C1098.501831,2394.361084 1092.912964,2369.025391 1086.763916,2340.606201 
z"/>
<path fill="#F3BB32" opacity="1.000000" stroke="none" 
	d="
M3037.578369,2269.611328 
	C3069.497314,2234.742432 3108.159668,2215.131592 3153.246582,2209.456055 
	C3210.391113,2202.262939 3261.657959,2216.491943 3304.280273,2256.563232 
	C3315.343262,2266.963867 3325.584229,2278.375977 3332.056641,2293.947754 
	C3307.059082,2309.834717 3282.654297,2325.580811 3256.783936,2340.446533 
	C3254.001953,2337.400879 3251.845947,2335.014648 3249.662109,2332.654541 
	C3244.694336,2327.285156 3240.106445,2321.487549 3234.674072,2316.637451 
	C3196.500244,2282.554932 3145.940918,2292.408936 3118.618164,2318.922363 
	C3099.842041,2337.142090 3088.301025,2359.014648 3082.136230,2384.184082 
	C3073.319580,2420.178467 3075.197021,2455.582520 3088.395020,2490.098389 
	C3100.133789,2520.797607 3119.926514,2544.097656 3152.711426,2553.544678 
	C3171.009033,2558.816895 3189.646729,2559.143555 3207.678467,2552.387695 
	C3231.119873,2543.604736 3245.912598,2526.550049 3252.481445,2502.451416 
	C3253.132080,2500.064209 3252.568604,2497.345947 3252.568604,2493.672363 
	C3222.553955,2489.964844 3192.718506,2494.504639 3163.519775,2491.176270 
	C3160.300781,2476.269287 3159.805176,2429.750000 3162.581543,2408.315430 
	C3166.071289,2407.586182 3169.853271,2406.114502 3173.638428,2406.106934 
	C3230.259766,2405.991455 3286.881348,2406.055664 3343.502930,2406.161865 
	C3345.396729,2406.165527 3347.289062,2407.059570 3348.630859,2407.398926 
	C3349.581299,2408.284668 3350.155273,2408.651611 3350.486084,2409.173096 
	C3350.833008,2409.719971 3351.109619,2410.407227 3351.138428,2411.045898 
	C3351.377686,2416.351318 3351.725586,2421.660400 3351.719238,2426.967773 
	C3351.640625,2494.240234 3351.516113,2561.512695 3351.328125,2628.784912 
	C3351.324951,2629.983643 3350.399902,2631.179443 3349.903809,2632.376221 
	C3336.696289,2635.741699 3298.428955,2636.381348 3274.302490,2633.550781 
	C3268.883057,2625.246094 3271.063477,2614.510986 3267.064941,2605.455078 
	C3260.444336,2604.682373 3258.033203,2610.383057 3254.359863,2613.747070 
	C3236.088135,2630.480713 3214.702148,2640.900146 3190.178955,2643.290527 
	C3168.923340,2645.362305 3147.661133,2643.812744 3126.765381,2638.384277 
	C3074.109863,2624.705322 3035.505859,2593.205566 3009.630615,2545.888428 
	C2990.080322,2510.137939 2981.476807,2471.516846 2980.829346,2430.857910 
	C2980.215332,2392.270020 2987.183350,2355.430664 3003.715576,2320.438232 
	C3012.314453,2302.237549 3023.267090,2285.667969 3037.578369,2269.611328 
z"/>
<path fill="#F3BB33" opacity="1.000000" stroke="none" 
	d="
M2130.873535,2566.818848 
	C2096.296631,2605.134766 2053.578125,2624.514160 2004.669434,2632.103760 
	C1988.797241,2634.566895 1972.925659,2635.255615 1956.920532,2635.157471 
	C1927.615967,2634.977539 1898.309326,2635.156494 1869.003906,2635.063721 
	C1863.156006,2635.045166 1857.309937,2634.480713 1851.134399,2634.150391 
	C1847.699097,2626.353027 1848.972656,2618.958984 1848.965942,2611.837402 
	C1848.870361,2511.931641 1848.901001,2412.025879 1848.901123,2312.120117 
	C1848.901123,2286.810547 1848.901001,2261.501221 1848.901123,2236.191650 
	C1848.901123,2230.917725 1848.901245,2225.643555 1848.901245,2219.241943 
	C1854.256348,2218.353027 1858.619751,2217.017822 1862.988892,2216.999023 
	C1900.952515,2216.833740 1938.958618,2215.777344 1976.870850,2217.180176 
	C2027.984619,2219.071533 2075.144775,2233.338379 2114.718262,2267.676514 
	C2139.423828,2289.114014 2157.286621,2315.248291 2168.104492,2345.965820 
	C2188.159180,2402.911621 2187.437012,2459.559326 2163.835693,2515.446533 
	C2156.015137,2533.964844 2145.246826,2550.749023 2130.873535,2566.818848 
M1977.123657,2548.215332 
	C2022.400635,2545.030762 2054.080078,2522.225586 2073.704590,2481.685059 
	C2085.449951,2457.420898 2087.288574,2431.725342 2084.016357,2405.701172 
	C2079.196289,2367.370361 2053.880127,2318.385498 1994.031494,2305.932129 
	C1981.841187,2303.395508 1968.917236,2304.212891 1956.321167,2303.906006 
	C1952.645874,2303.816650 1948.935181,2305.186523 1945.473877,2305.843506 
	C1944.982788,2308.988770 1944.418335,2310.921875 1944.416870,2312.855713 
	C1944.363892,2388.008301 1944.335327,2463.161133 1944.451172,2538.313477 
	C1944.455933,2541.355225 1945.888794,2544.394775 1946.858521,2548.236816 
	C1956.207153,2548.236816 1964.826904,2548.236816 1977.123657,2548.215332 
z"/>
<path fill="#F3BB33" opacity="1.000000" stroke="none" 
	d="
M3403.677734,2252.221680 
	C3403.877686,2240.952637 3404.015869,2231.647461 3404.358398,2222.349609 
	C3404.400146,2221.219238 3405.543701,2220.129395 3406.858154,2217.827393 
	C3411.946777,2217.546631 3417.792725,2216.958496 3423.640137,2216.944824 
	C3460.267578,2216.859863 3496.896484,2216.683838 3533.521729,2216.978760 
	C3559.038818,2217.184082 3583.957764,2221.570068 3607.266357,2232.176025 
	C3658.896484,2255.668945 3685.382812,2296.239502 3687.782471,2352.822266 
	C3688.816162,2377.194580 3684.984619,2400.479492 3674.539307,2422.707764 
	C3653.795654,2466.850098 3619.177490,2493.390137 3571.899658,2503.373047 
	C3559.638916,2505.961670 3546.845459,2506.310303 3534.259277,2506.987061 
	C3523.694580,2507.554932 3513.074951,2507.103516 3503.927002,2507.103516 
	C3497.647461,2512.498047 3499.205322,2518.185059 3499.177979,2523.282715 
	C3499.018555,2553.249512 3499.145508,2583.218262 3499.057861,2613.185791 
	C3499.038818,2619.682861 3498.537598,2626.178467 3498.274414,2632.299072 
	C3482.211426,2635.874268 3424.343750,2636.144531 3406.505371,2633.069824 
	C3405.854492,2632.489014 3405.254639,2632.133301 3404.923096,2631.608398 
	C3404.579590,2631.064453 3404.323486,2630.356934 3404.322266,2629.720703 
	C3404.090332,2504.542969 3403.884521,2379.365234 3403.677734,2252.221680 
M3592.158447,2365.070801 
	C3593.123779,2344.242432 3585.375000,2327.499268 3568.478027,2315.207520 
	C3560.260010,2309.229248 3550.730225,2305.537598 3540.845459,2304.700439 
	C3527.266846,2303.550293 3513.366211,2301.440430 3500.147949,2306.106934 
	C3497.898926,2333.674561 3498.604248,2403.359619 3501.191406,2417.970215 
	C3502.320312,2418.562744 3503.429199,2419.622559 3504.581299,2419.671875 
	C3511.870850,2419.985107 3519.172607,2420.296875 3526.465088,2420.199951 
	C3562.232910,2419.724609 3583.001953,2403.205566 3592.158447,2365.070801 
z"/>
<path fill="#F3BB32" opacity="1.000000" stroke="none" 
	d="
M2487.227295,2519.094238 
	C2430.735840,2519.093750 2376.140137,2519.093750 2320.032959,2519.093750 
	C2320.997070,2523.711426 2320.880371,2527.132080 2322.364990,2529.581787 
	C2329.180908,2540.827148 2339.043701,2548.564453 2351.635254,2552.430176 
	C2376.229004,2559.980957 2400.215820,2559.321289 2423.102295,2546.359375 
	C2424.838379,2545.375977 2426.434326,2544.148438 2428.136230,2543.100586 
	C2429.826416,2542.059570 2431.568359,2541.102783 2434.046875,2539.670410 
	C2446.307861,2545.085449 2453.536621,2556.831299 2463.348145,2565.403320 
	C2473.331787,2574.125732 2482.259766,2584.056152 2492.665039,2594.474121 
	C2487.897949,2599.282471 2484.146240,2603.874512 2479.620361,2607.500732 
	C2450.068115,2631.179932 2416.701904,2643.755371 2378.385498,2643.990479 
	C2345.390869,2644.192871 2314.898682,2636.399658 2287.302490,2618.768311 
	C2245.779297,2592.238770 2223.524658,2553.206543 2218.768799,2504.756104 
	C2214.449951,2460.756592 2223.965088,2419.732910 2252.349609,2384.727783 
	C2279.431885,2351.328857 2315.097656,2333.816406 2357.964600,2331.917236 
	C2376.532959,2331.094482 2395.122314,2331.017578 2413.538574,2335.944580 
	C2469.145020,2350.820557 2505.259277,2391.506592 2515.252930,2447.300537 
	C2518.919434,2467.769775 2518.832764,2488.403076 2515.275879,2508.940674 
	C2514.836426,2511.478271 2513.667725,2513.889404 2512.682617,2516.817627 
	C2504.997803,2520.570312 2496.895264,2518.520752 2487.227295,2519.094238 
M2408.237061,2456.248291 
	C2412.770996,2455.973389 2417.304932,2455.698730 2422.570557,2455.379639 
	C2422.239746,2443.886719 2416.022949,2436.466553 2408.730713,2429.642822 
	C2399.546631,2421.048584 2388.071533,2417.873291 2376.040527,2417.130127 
	C2361.089355,2416.206543 2347.099121,2420.148438 2334.786133,2428.767334 
	C2326.004395,2434.914062 2319.695557,2443.056152 2317.002686,2453.493164 
	C2319.109131,2454.713379 2320.154297,2455.844971 2321.208008,2455.852539 
	C2349.011230,2456.056152 2376.815674,2456.143066 2408.237061,2456.248291 
z"/>
<path fill="#F3BB33" opacity="1.000000" stroke="none" 
	d="
M2703.838379,2286.724365 
	C2680.251465,2297.643555 2678.158447,2316.720215 2679.759521,2338.250244 
	C2695.388428,2342.201904 2710.702393,2339.671631 2725.831055,2340.118652 
	C2741.055664,2340.568115 2756.303467,2340.217285 2771.183350,2340.217285 
	C2774.805420,2356.022217 2775.110840,2406.353760 2771.811035,2425.910156 
	C2768.384033,2426.281250 2764.599365,2427.025635 2760.810303,2427.046387 
	C2739.492188,2427.163574 2718.173340,2427.040283 2696.855225,2427.155762 
	C2691.681396,2427.183838 2686.510742,2427.799805 2680.916992,2428.173584 
	C2678.291504,2436.240479 2679.151123,2443.563232 2679.140869,2450.724854 
	C2679.063477,2504.687256 2679.119873,2558.649902 2679.070801,2612.612305 
	C2679.064941,2619.163574 2678.679199,2625.714600 2678.481934,2631.873535 
	C2664.479492,2635.831787 2609.275391,2636.536865 2586.363770,2633.317383 
	C2581.841064,2628.349854 2583.791504,2622.052979 2583.774414,2616.331299 
	C2583.611328,2561.703125 2583.677002,2507.073975 2583.676758,2452.445312 
	C2583.676758,2445.194336 2583.676514,2437.943115 2583.676514,2429.606201 
	C2579.002930,2428.646240 2575.356689,2427.428467 2571.656494,2427.234375 
	C2563.768066,2426.820312 2555.851318,2426.937988 2548.371094,2426.843018 
	C2544.116455,2413.004150 2543.390381,2365.442139 2546.908447,2341.647461 
	C2557.794922,2338.020264 2570.110596,2342.224121 2582.164551,2338.665527 
	C2584.800293,2330.086426 2583.668945,2321.423584 2583.599609,2312.951660 
	C2583.431885,2292.481689 2588.300293,2273.170166 2597.914795,2255.376465 
	C2615.213379,2223.362793 2642.336914,2204.949951 2678.429932,2199.619385 
	C2707.588623,2195.312500 2735.506592,2198.589844 2761.834961,2212.356201 
	C2765.296631,2214.166260 2768.429443,2216.605225 2771.390137,2218.540771 
	C2769.481934,2233.878906 2753.145508,2276.479004 2743.601562,2291.311279 
	C2731.054199,2288.998535 2719.048584,2280.476562 2703.838379,2286.724365 
z"/>
<path fill="#F3BC34" opacity="1.000000" stroke="none" 
	d="
M3900.000000,2216.879395 
	C3937.238525,2216.879883 3972.476807,2216.879883 4008.106689,2216.879883 
	C4013.751953,2231.359863 4010.467773,2245.377686 4010.981445,2259.026367 
	C4011.503418,2272.900879 4010.922119,2286.816650 4010.816162,2301.792725 
	C4006.105957,2302.564941 4002.389893,2303.668945 3998.664307,2303.702393 
	C3978.686768,2303.882080 3958.707031,2303.794678 3938.728027,2303.799072 
	C3932.132812,2303.800537 3925.537842,2303.799316 3919.676758,2303.799316 
	C3913.809570,2310.603027 3915.879395,2317.543213 3915.865723,2323.913818 
	C3915.714844,2393.840332 3915.771240,2463.766846 3915.770996,2533.693604 
	C3915.770752,2561.664307 3915.830322,2589.635254 3915.713867,2617.605469 
	C3915.692383,2622.739258 3914.952637,2627.870117 3914.571045,2632.666016 
	C3896.932617,2636.002197 3838.658936,2635.973877 3821.055420,2632.552734 
	C3819.381104,2619.229980 3820.451660,2605.354736 3820.267822,2591.565186 
	C3820.090088,2578.248291 3820.229004,2564.927002 3820.229004,2551.607666 
	C3820.229004,2537.622314 3820.229004,2523.636963 3820.229004,2509.651611 
	C3820.229004,2496.332275 3820.229004,2483.012939 3820.229004,2469.693604 
	C3820.229004,2455.708252 3820.229004,2441.722900 3820.229004,2427.737549 
	C3820.229004,2414.418213 3820.229004,2401.098633 3820.229004,2387.779297 
	C3820.229004,2373.793945 3820.281738,2359.808350 3820.213623,2345.823242 
	C3820.149414,2332.640137 3819.957764,2319.457520 3819.811279,2305.223389 
	C3788.318359,2301.668945 3757.804443,2305.753174 3727.834717,2302.856201 
	C3724.112061,2288.614746 3723.676758,2238.089600 3726.934082,2219.510742 
	C3727.405029,2219.039795 3727.812012,2218.462646 3728.365479,2218.128418 
	C3728.912354,2217.798096 3729.606934,2217.546875 3730.238037,2217.544189 
	C3786.158691,2217.304932 3842.079346,2217.092773 3900.000000,2216.879395 
z"/>
<path fill="#F3BA30" opacity="1.000000" stroke="none" 
	d="
M2925.999512,2404.015869 
	C2925.688477,2480.641113 2925.387939,2555.270264 2924.983154,2629.899170 
	C2924.977051,2631.018799 2923.675537,2632.131348 2922.978027,2633.246582 
	C2908.075684,2635.567627 2852.564209,2635.842529 2833.340820,2633.663818 
	C2827.970215,2627.448730 2830.114990,2619.785156 2830.096924,2612.718506 
	C2829.929443,2547.393311 2829.998047,2482.067139 2829.998047,2416.741455 
	C2829.998291,2397.410400 2829.945557,2378.078857 2830.033447,2358.748291 
	C2830.057373,2353.504395 2830.505859,2348.262695 2830.745361,2343.311523 
	C2844.753418,2339.531494 2889.787598,2338.643799 2923.735107,2341.376465 
	C2924.434326,2344.694092 2925.819336,2348.350830 2925.874023,2352.027344 
	C2926.121826,2368.688721 2925.993896,2385.355225 2925.999512,2404.015869 
z"/>
<path fill="#F3BB33" opacity="1.000000" stroke="none" 
	d="
M2847.994141,2186.925537 
	C2864.136719,2177.609131 2880.236084,2177.481445 2895.773438,2181.795654 
	C2923.014160,2189.359131 2940.163086,2220.114502 2934.209473,2248.067871 
	C2929.285156,2271.188721 2911.901611,2288.209961 2888.550537,2292.775146 
	C2865.971191,2297.189697 2841.238281,2287.375000 2829.519775,2268.269775 
	C2816.566406,2247.151123 2816.153076,2225.622070 2829.804199,2204.354004 
	C2834.191650,2197.518311 2839.562012,2191.754883 2847.994141,2186.925537 
z"/>
<path fill="#12110F" opacity="1.000000" stroke="none" 
	d="
M1151.627808,2631.971436 
	C1147.071167,2640.784668 1142.799438,2649.759766 1137.900757,2658.378662 
	C1126.421143,2678.576172 1114.641357,2698.603027 1102.770508,2719.065430 
	C1093.910156,2714.379639 1089.463379,2706.852051 1085.031128,2699.647461 
	C1076.324707,2685.495605 1068.185303,2670.993896 1059.856323,2656.610840 
	C1031.203247,2607.130371 1002.518433,2557.668457 973.963745,2508.131348 
	C966.662598,2495.465088 959.467712,2482.716797 952.802490,2469.709717 
	C941.439636,2447.535400 940.732178,2425.260010 952.871826,2402.885986 
	C976.012878,2360.234863 998.140930,2317.013672 1022.145935,2274.858398 
	C1041.545654,2240.790771 1062.999268,2207.888428 1083.750854,2174.599609 
	C1087.544922,2168.513428 1091.236206,2162.108154 1099.749390,2155.681396 
	C1091.794189,2188.322021 1084.841431,2218.248047 1082.798340,2249.127930 
	C1080.765259,2279.854492 1082.273926,2310.250977 1085.345581,2342.488770 
	C1081.200806,2347.116455 1078.057617,2349.565186 1075.843872,2352.675293 
	C1072.390259,2357.527344 1069.460571,2362.767090 1066.498169,2367.950684 
	C1059.246216,2380.641602 1051.751099,2393.211182 1045.002808,2406.167236 
	C1036.281982,2422.911377 1034.338501,2439.932617 1044.450195,2457.145996 
	C1054.204590,2473.750732 1063.468750,2490.642578 1073.102905,2507.318848 
	C1088.714600,2534.341797 1104.523560,2561.250488 1120.105103,2588.290771 
	C1127.070679,2600.378662 1133.703491,2612.658447 1140.451904,2624.871094 
	C1142.899292,2629.300049 1146.442871,2631.901611 1151.627808,2631.971436 
z"/>
<path fill="#12110F" opacity="1.000000" stroke="none" 
	d="
M1614.590454,2452.100098 
	C1612.129761,2457.488037 1610.015015,2463.067627 1607.155884,2468.235352 
	C1570.081665,2535.248047 1532.979370,2602.245605 1495.677734,2669.132324 
	C1488.873291,2681.333496 1481.447876,2693.218262 1473.779907,2704.901855 
	C1460.862671,2724.584229 1442.591919,2734.582764 1418.855591,2736.389160 
	C1337.649414,2742.568359 1256.395508,2740.799805 1175.135376,2738.750488 
	C1161.183228,2738.398438 1147.270264,2736.500488 1129.741455,2735.010986 
	C1136.358398,2731.964844 1139.894897,2729.656006 1143.769287,2728.655762 
	C1197.393311,2714.812988 1246.015381,2690.880615 1292.826294,2656.430420 
	C1320.594971,2656.015869 1345.218750,2656.432861 1369.819092,2655.852539 
	C1393.697021,2655.289307 1413.651367,2647.149902 1425.975220,2624.765137 
	C1441.961914,2595.727539 1458.713257,2567.112061 1474.883789,2538.174072 
	C1484.594238,2520.796875 1493.658447,2503.058350 1503.332031,2485.659912 
	C1509.426270,2474.699219 1516.110229,2464.066406 1522.158691,2453.909424 
	C1524.303833,2453.193848 1525.548096,2452.421631 1526.796265,2452.415039 
	C1556.060669,2452.260010 1585.325684,2452.187744 1614.590454,2452.100098 
z"/>
<path fill="#12110F" opacity="1.000000" stroke="none" 
	d="
M1170.185913,2215.798096 
	C1148.000122,2182.487061 1130.770264,2150.933838 1127.327393,2136.583008 
	C1145.323975,2135.340576 1163.117554,2133.160645 1180.923828,2133.051758 
	C1248.070312,2132.640869 1315.221558,2132.746338 1382.369263,2133.043701 
	C1396.300903,2133.105469 1410.229004,2134.766357 1424.151978,2135.781006 
	C1444.072266,2137.232910 1459.630249,2146.099365 1470.017334,2163.354736 
	C1486.811401,2191.253418 1503.950928,2218.958008 1520.120728,2247.215576 
	C1549.493652,2298.546875 1578.261475,2350.224609 1607.148682,2403.850586 
	C1606.374878,2406.811523 1605.546875,2407.427490 1604.531738,2407.791748 
	C1602.933105,2406.647705 1601.137085,2405.701660 1599.764282,2404.331055 
	C1561.310913,2365.942871 1516.533325,2337.191162 1464.534424,2314.664062 
	C1451.664429,2292.223877 1441.133423,2271.453369 1429.424438,2251.369873 
	C1420.290405,2235.702881 1408.729492,2221.795898 1389.810181,2217.424316 
	C1383.439819,2215.952393 1376.621704,2216.074463 1370.006714,2216.058838 
	C1303.400024,2215.901367 1236.792847,2215.867188 1170.185913,2215.798096 
z"/>
<path fill="#1F1E1C" opacity="1.000000" stroke="none" 
	d="
M1170.504761,2217.052246 
	C1236.792847,2215.867188 1303.400024,2215.901367 1370.006714,2216.058838 
	C1376.621704,2216.074463 1383.439819,2215.952393 1389.810181,2217.424316 
	C1408.729492,2221.795898 1420.290405,2235.702881 1429.424438,2251.369873 
	C1441.133423,2271.453369 1451.664429,2292.223877 1463.302734,2313.895752 
	C1444.736694,2309.727295 1425.650269,2304.052246 1406.382202,2299.082031 
	C1387.002686,2294.083008 1367.227539,2291.532471 1347.162231,2291.473877 
	C1309.234985,2291.363037 1271.307861,2291.181396 1233.380737,2291.038818 
	C1226.791382,2291.013916 1220.201904,2291.035400 1212.686646,2291.035400 
	C1198.645630,2266.641602 1184.734619,2242.473877 1170.504761,2217.052246 
z"/>
<path fill="#1F1E1C" opacity="1.000000" stroke="none" 
	d="
M1614.050537,2450.556152 
	C1585.325684,2452.187744 1556.060669,2452.260010 1526.796265,2452.415039 
	C1525.548096,2452.421631 1524.303833,2453.193848 1522.158691,2453.909424 
	C1516.110229,2464.066406 1509.426270,2474.699219 1503.332031,2485.659912 
	C1493.658447,2503.058350 1484.594238,2520.796875 1474.883789,2538.174072 
	C1458.713257,2567.112061 1441.961914,2595.727539 1425.975220,2624.765137 
	C1413.651367,2647.149902 1393.697021,2655.289307 1369.819092,2655.852539 
	C1345.218750,2656.432861 1320.594971,2656.015869 1294.132690,2656.005371 
	C1303.880127,2645.080078 1315.690796,2634.402344 1327.022949,2623.238770 
	C1344.617432,2605.906250 1360.222046,2586.864258 1372.844482,2565.604980 
	C1392.866089,2531.883789 1412.476440,2497.918213 1432.263916,2464.058105 
	C1435.249268,2458.949707 1438.252197,2453.851074 1441.570190,2448.197266 
	C1475.957275,2448.197266 1509.854492,2448.097412 1543.750854,2448.231689 
	C1567.004761,2448.323486 1590.257324,2448.740479 1614.050537,2450.556152 
z"/>
<path fill="#1F1E1C" opacity="1.000000" stroke="none" 
	d="
M1152.713867,2631.140137 
	C1146.442871,2631.901611 1142.899292,2629.300049 1140.451904,2624.871094 
	C1133.703491,2612.658447 1127.070679,2600.378662 1120.105103,2588.290771 
	C1104.523560,2561.250488 1088.714600,2534.341797 1073.102905,2507.318848 
	C1063.468750,2490.642578 1054.204590,2473.750732 1044.450195,2457.145996 
	C1034.338501,2439.932617 1036.281982,2422.911377 1045.002808,2406.167236 
	C1051.751099,2393.211182 1059.246216,2380.641602 1066.498169,2367.950684 
	C1069.460571,2362.767090 1072.390259,2357.527344 1075.843872,2352.675293 
	C1078.057617,2349.565186 1081.200806,2347.116455 1085.227661,2344.130859 
	C1092.912964,2369.025391 1098.501831,2394.361084 1108.217773,2418.565186 
	C1118.684937,2444.640625 1132.944580,2468.698730 1146.772949,2492.988281 
	C1160.599854,2517.275146 1174.827148,2541.333984 1189.130371,2565.925293 
	C1185.988892,2578.334717 1177.828613,2588.254639 1171.871948,2599.237061 
	C1166.161987,2609.764648 1159.848267,2619.965088 1152.713867,2631.140137 
z"/>
<path fill="#1F1E1C" opacity="1.000000" stroke="none" 
	d="
M1604.891357,2408.831543 
	C1605.546875,2407.427490 1606.374878,2406.811523 1607.394287,2405.259277 
	C1609.223267,2406.570312 1610.841919,2408.468994 1612.067017,2410.594727 
	C1612.936768,2412.104004 1613.275635,2413.919189 1614.878662,2418.592529 
	C1610.230225,2414.381836 1607.740601,2412.126465 1604.891357,2408.831543 
z"/>
<path fill="#FFFEFC" opacity="1.000000" stroke="none" 
	d="
M1975.285156,2548.226074 
	C1964.826904,2548.236816 1956.207153,2548.236816 1946.858521,2548.236816 
	C1945.888794,2544.394775 1944.455933,2541.355225 1944.451172,2538.313477 
	C1944.335327,2463.161133 1944.363892,2388.008301 1944.416870,2312.855713 
	C1944.418335,2310.921875 1944.982788,2308.988770 1945.473877,2305.843506 
	C1948.935181,2305.186523 1952.645874,2303.816650 1956.321167,2303.906006 
	C1968.917236,2304.212891 1981.841187,2303.395508 1994.031494,2305.932129 
	C2053.880127,2318.385498 2079.196289,2367.370361 2084.016357,2405.701172 
	C2087.288574,2431.725342 2085.449951,2457.420898 2073.704590,2481.685059 
	C2054.080078,2522.225586 2022.400635,2545.030762 1975.285156,2548.226074 
z"/>
<path fill="#FFFEFC" opacity="1.000000" stroke="none" 
	d="
M3592.005371,2366.723389 
	C3583.001953,2403.205566 3562.232910,2419.724609 3526.465088,2420.199951 
	C3519.172607,2420.296875 3511.870850,2419.985107 3504.581299,2419.671875 
	C3503.429199,2419.622559 3502.320312,2418.562744 3501.192383,2417.968262 
	C3498.604248,2403.359619 3497.898926,2333.674561 3500.147949,2306.106934 
	C3513.366211,2301.440430 3527.266846,2303.550293 3540.845459,2304.700439 
	C3550.730225,2305.537598 3560.260010,2309.229248 3568.478027,2315.207520 
	C3585.375000,2327.499268 3593.123779,2344.242432 3592.005371,2366.723389 
z"/>
<path fill="#FFFEFC" opacity="1.000000" stroke="none" 
	d="
M2406.428223,2456.249268 
	C2376.815674,2456.143066 2349.011230,2456.056152 2321.208008,2455.852539 
	C2320.154297,2455.844971 2319.109131,2454.713379 2317.002686,2453.493164 
	C2319.695557,2443.056152 2326.004395,2434.914062 2334.786133,2428.767334 
	C2347.099121,2420.148438 2361.089355,2416.206543 2376.040527,2417.130127 
	C2388.071533,2417.873291 2399.546631,2421.048584 2408.730713,2429.642822 
	C2416.022949,2436.466553 2422.239746,2443.886719 2422.570557,2455.379639 
	C2417.304932,2455.698730 2412.770996,2455.973389 2406.428223,2456.249268 
z"/>
</svg>